<svg width="200" height="279" viewBox="0 0 200 279" fill="none" xmlns="http://www.w3.org/2000/svg">
<g clip-path="url(#clip0_567_1485)">
<path d="M199.975 14.5336C199.899 14.3814 199.722 14.28 199.544 14.3307C198 14.9901 196.456 15.5481 194.861 16.1315C190.481 17.7548 185.924 18.8201 181.367 19.8853C176.152 21.0521 170.835 21.8891 165.646 23.1826C161.165 24.2732 156.709 25.5921 152.405 27.3169C149.165 28.5851 145.975 29.9547 142.987 31.7048C139.443 33.6578 136.582 36.5746 133.798 39.4661C131.241 42.1546 128.658 44.8431 126.405 47.8107C125.139 49.4847 124.076 51.3109 123.063 53.1371C124.658 47.1005 126.886 41.0132 130.962 36.1941C131.266 35.8137 130.911 35.3571 130.481 35.5601C129.443 36.0673 128.481 36.7268 127.494 37.3355C119.949 42.459 113.215 48.8252 107.418 55.851C104.582 59.3258 101.848 62.8767 99.595 66.7573C96.9874 71.2974 95.0127 76.1926 93.595 81.24C93.4431 78.247 93.6963 75.2541 94.1013 72.2866C94.1773 71.754 94.2532 71.2467 94.2785 70.7141C94.2785 70.359 94.3798 69.8517 94.0254 69.6488C93.7722 69.522 93.519 69.6488 93.3418 69.8517C93.114 70.08 92.9368 70.3336 92.7342 70.5872C92.3292 71.1199 91.9241 71.6779 91.5444 72.2359C90.2785 74.0367 89.1393 75.939 88.152 77.9173C85.7216 82.914 83.4937 87.9613 81.2406 93.034C78.9621 98.1068 76.8608 103.281 74.6583 108.379C72.557 113.198 70.2532 117.941 67.8735 122.633C66.5823 125.144 65.2659 127.655 63.7216 130.04C63.0634 131.054 62.3798 132.043 61.6709 133.007C61.7722 132.804 61.8735 132.627 61.9747 132.424C64.0507 128.34 65.4684 123.978 66.7596 119.59C67.8228 116.774 68.8861 113.959 70.076 111.22C71.4684 108.1 72.7089 104.93 73.8988 101.734C76.2785 95.6972 79.1646 89.9143 82.4558 84.309C84.5823 80.682 86.8608 77.1311 88.9368 73.4533C90.8861 70.0039 92.4304 66.3515 94.2026 62.826C95.519 60.1881 96.8608 57.5503 98.0001 54.8364C98.3292 54.0755 98.6583 53.2892 98.9621 52.503C99.0887 52.1225 99.2406 51.7167 99.3165 51.3109C99.3165 51.1587 99.3418 50.9811 99.2406 50.829C99.0127 50.4739 98.557 50.6007 98.2785 50.829C97.4684 51.4377 96.7089 52.0718 95.9241 52.7312C93.3925 54.8871 90.7596 56.9162 88.0507 58.8439C93.8482 51.7928 100.025 44.5895 102.81 35.7122C103.013 34.9513 103.57 33.0491 103.013 32.415C102.633 32.0852 102.203 32.5418 101.975 32.8208C99.6203 35.763 97.1393 38.6037 94.3798 41.1654C95.4431 39.4914 96.4558 37.7667 97.3671 35.9912C98.8861 32.9476 100.38 29.8786 101.62 26.7081C103.089 22.8275 104.203 18.8454 105.367 14.8887C106.557 10.5769 107.62 6.21433 108.911 1.92787C109.038 1.52205 109.165 1.11624 109.241 0.685053C109.241 0.558235 109.291 0.406053 109.241 0.279235C109.165 0.0509625 108.886 -0.101219 108.658 -0.0251284C108.456 0.0255989 108.253 0.152417 108.076 0.304599C105.494 2.73951 103.19 5.45342 100.709 7.96442C98.8861 9.84133 97.038 11.7436 95.2912 13.6966C91.7722 17.7041 88.633 22.0666 86.152 26.7842C83.8988 31.0707 82.2532 35.7122 81.2406 40.4552C79.8735 46.644 79.4178 52.9849 78.557 59.2497C77.5697 56.5358 76.9874 53.6697 76.8608 50.7529C76.8102 49.7891 76.7596 48.7745 76.7089 47.7346C76.7089 47.2527 76.7089 46.2128 75.9747 46.4411C75.7469 46.5679 75.6203 46.8215 75.4937 47.0751C75.2659 47.5317 75.0634 48.0136 74.8608 48.4955C74.2279 49.9666 73.519 51.387 72.8608 52.8327C70.9874 56.8909 69.3671 61.1012 68.5317 65.4891C67.7975 69.0908 67.4178 72.7685 67.4178 76.4209C67.4178 81.5443 68.2026 86.5917 68.1773 91.7405C66.7849 89.4831 65.3671 87.2004 64.7849 84.5626C64.4811 83.3198 64.2532 82.077 64.0507 80.8341C64.0001 80.479 63.9241 80.0986 63.8735 79.7435C63.8228 79.4899 63.8228 79.1601 63.6203 78.9826C63.1646 78.6275 62.8608 79.2362 62.7596 79.6167C61.8988 82.356 61.4684 85.2474 61.3671 88.1389C61.2406 91.0557 61.519 93.9725 61.7975 96.8893C62.0507 99.5271 62.3292 102.165 62.5064 104.828C62.3798 105.792 62.3292 106.756 62.2532 107.72C61.9494 112.463 61.4178 117.206 60.5064 121.873C59.8988 125.626 59.114 129.329 57.7975 132.931C57.038 135.493 56.0507 137.978 54.8102 140.337C54.6077 140.667 54.4304 141.022 54.2532 141.352C51.7975 145.74 49.5444 150.229 47.0634 154.592C45.5697 157.153 44.1266 159.766 42.7849 162.429C41.7975 164.154 40.8861 165.904 40.1013 167.705C39.4178 169.226 38.7596 170.774 38.152 172.321C37.9241 172.98 37.2659 174.299 37.6203 174.959C38.152 175.441 38.5823 174.806 38.9115 174.122C38.9874 174.046 39.0634 173.969 39.114 173.893C39.3165 173.614 39.4937 173.335 39.6456 173.031C40.0507 172.346 40.4558 171.687 40.8355 171.027C42.5064 168.11 44.1266 165.168 45.7722 162.226C48.2279 157.661 50.9115 153.222 53.6203 148.783C54.076 148.048 54.5064 147.312 54.9621 146.551C55.519 145.74 56.076 144.953 56.6583 144.142C57.6963 142.721 58.8102 141.352 60.0254 140.084C61.519 138.435 63.3925 136.837 65.1393 135.442C67.6709 133.388 69.9494 131.054 72.1773 128.695C77.3671 123.039 82.2532 117.104 87.3165 111.321C90.6836 107.263 94.3039 103.357 98.1773 99.8061C101.038 97.3966 104 95.0885 107.013 92.8819C111.823 89.4324 116.886 86.3634 121.671 82.8632C127.317 78.729 132.836 74.4171 137.899 69.5727C138.051 69.3951 138.228 69.1922 138.127 68.9386C138.025 68.6089 137.62 68.6596 137.342 68.7357C136.203 69.0401 135.114 69.4966 134 69.7756C132.861 70.0292 131.696 70.2575 130.557 70.4604C127.443 71.0691 124.253 71.3228 121.089 71.3481C122.886 70.6633 124.709 70.0039 126.532 69.3951C131.063 68.0255 135.646 66.8588 140.076 65.1848C147.949 62.4709 154.836 57.6011 161.139 52.2493C162.684 50.9558 164.253 49.6622 165.671 48.2165C165.924 47.9121 166.304 47.6331 166.354 47.202C166.354 46.6947 165.747 46.6947 165.367 46.7961C161.823 47.5571 158.253 48.2926 154.658 48.6731C152.279 48.9013 149.798 49.0789 147.418 48.6477C150.177 47.8107 152.962 47.0751 155.798 46.4918C158.43 45.9591 161.089 45.4519 163.646 44.6656C167.62 43.4989 171.19 41.2161 174.228 38.4261C176.051 36.6761 177.747 34.7991 179.418 32.8969C181.19 30.8678 182.785 28.6865 184.658 26.7335C187.114 24.1464 189.798 21.7876 192.658 19.6824C194.785 18.0084 197.063 16.5881 199.418 15.2438C199.595 15.1423 199.772 15.0916 199.949 14.9901C200.101 14.8887 200.152 14.7111 200.076 14.5336H199.975ZM61.6203 135.036C61.6203 135.036 61.6203 135.036 61.5697 135.036H61.595H61.6203ZM67.6709 107.77C69.6203 101.379 71.4937 94.9617 73.519 88.5954C75.4178 82.077 77.3165 75.5585 79.3165 69.0908C81.5444 61.431 83.3165 53.6443 85.6709 46.0099C87.3418 40.6328 89.2152 35.3064 91.3165 30.0815C93.2152 25.3639 95.3418 20.7223 98.2279 16.512C95.8735 22.1173 93.4431 27.672 91.3925 33.3788C89.4178 38.3754 87.7469 43.4735 86.3039 48.6477C82.7849 60.0867 80.6583 71.9061 77.2659 83.3705C75.8228 88.4432 74.2026 93.4652 72.4558 98.4619C71.2152 102.038 69.7469 105.614 68.5317 109.191C65.8228 117.13 63.3165 125.144 60.2279 132.956C60.1773 133.007 60.1266 133.058 60.076 133.109C59.9747 133.083 59.8735 133.109 59.7975 133.134C60.3292 131.46 60.8355 129.761 61.2659 128.061C63.3165 121.264 65.5697 114.542 67.6709 107.77ZM143.772 45.4265C140.836 47.4556 137.899 49.4847 135.114 51.6913C130.481 55.3944 125.975 59.2243 121.494 63.105C118.886 65.4384 116.532 68.0509 114.076 70.5619C111.646 73.0982 109.19 75.5839 106.886 78.2217C103.823 81.6458 100.684 85.0191 97.7469 88.57C95.1646 91.6137 92.8102 94.8602 90.4811 98.1068C88.7596 100.415 87.0127 102.723 85.3925 105.107C83.4684 107.872 81.4684 110.56 79.5444 113.325C77.6203 116.115 75.7216 118.905 73.8482 121.72C72.6583 123.496 71.4684 125.297 70.076 126.945C68.4304 128.898 66.7342 130.953 64.8608 132.754C64.152 133.388 63.4684 134.022 62.7849 134.681C62.7849 134.681 62.7849 134.681 62.7596 134.681C62.4304 134.605 62.4304 134.301 62.5064 134.047C63.8482 132.551 65.1899 131.08 66.5064 129.558C68.1013 127.706 69.5444 125.728 70.8861 123.699C78.0254 113.249 85.2406 102.824 92.9115 92.7297C95.7722 89.0012 98.7342 85.3235 101.924 81.874C107.418 76.0404 113.089 70.4097 118.76 64.7282C126.076 57.4235 133.873 50.5753 142.354 44.6656C149.114 40.1001 156.304 36.1941 163.722 32.8208C156.785 36.5492 150.304 41.0893 143.772 45.4519V45.4265Z" fill="#5534DA"/>
<path d="M150.001 173.767C149.798 174.198 149.519 174.578 149.216 174.933C146.026 178.256 141.317 179.981 136.861 180.868C132.355 181.807 127.722 180.944 123.317 179.955C127.697 176.328 132.608 172.092 133.595 166.183C134.557 159.106 127.899 154.516 121.494 154.211C100.076 153.501 80.7347 165.143 62.5828 175.212C55.6967 178.991 48.0258 183.836 39.8486 181.934C38.7094 181.604 37.5448 180.868 37.1904 179.651C37.2157 179.321 37.0638 178.941 36.7347 178.788C34.203 178.281 36.0005 181.857 37.1651 182.492C47.2157 188.249 61.1904 177.571 70.0765 172.955C79.241 167.933 88.7094 162.86 98.6841 159.588C106.963 157.128 116.76 154.389 125.292 156.697C129.646 157.965 133.038 162.53 131.646 167.096C129.899 172.371 125.368 176.1 121.14 179.397C114.482 177.799 107.57 176.049 100.684 177.038C96.8866 177.723 92.5068 179.068 90.6081 182.72C87.6461 188.706 95.0638 189.872 99.3676 189.746C107.444 189.492 115.14 186.169 121.52 181.274C128.76 183.176 135.925 183.887 142.988 180.894C146.178 179.423 149.798 177.799 151.519 174.527C152.051 173.538 150.482 172.727 149.975 173.716L150.001 173.767ZM99.1398 188.046C96.8106 187.869 92.7094 188.198 91.722 185.586C91.5701 182.289 95.2157 180.361 97.9499 179.524C104.963 177.393 112.355 179.169 119.292 180.792C113.444 185.079 106.431 187.843 99.1398 188.046Z" fill="#5534DA"/>
</g>
<path d="M13.6156 263.782V232.087H1.13965V224.722H35.1143V232.087H22.6384V263.782H13.6156Z" fill="#5534DA"/>
<path d="M54.9474 263.782V257.923L54.3904 256.639V246.149C54.3904 244.289 53.8149 242.838 52.6638 241.797C51.5499 240.755 49.8233 240.234 47.4841 240.234C45.8874 240.234 44.3094 240.495 42.7499 241.015C41.2275 241.499 39.928 242.169 38.8512 243.024L35.7322 236.942C37.3659 235.789 39.3339 234.896 41.636 234.264C43.9381 233.631 46.2773 233.315 48.6537 233.315C53.2208 233.315 56.7668 234.394 59.2917 236.551C61.8166 238.709 63.079 242.076 63.079 246.651V263.782H54.9474ZM45.8132 264.228C43.4739 264.228 41.4689 263.838 39.798 263.056C38.1271 262.238 36.8461 261.141 35.955 259.764C35.0638 258.388 34.6182 256.844 34.6182 255.133C34.6182 253.347 35.0452 251.785 35.8993 250.446C36.7904 249.106 38.1828 248.065 40.0765 247.321C41.9701 246.54 44.4393 246.149 47.4841 246.149H55.4486V251.227H48.4309C46.3887 251.227 44.9777 251.562 44.198 252.231C43.4554 252.901 43.0841 253.738 43.0841 254.742C43.0841 255.858 43.5111 256.751 44.3651 257.421C45.2562 258.053 46.463 258.369 47.9853 258.369C49.4334 258.369 50.733 258.034 51.8841 257.365C53.0351 256.658 53.8706 255.635 54.3904 254.296L55.7271 258.313C55.0959 260.248 53.9448 261.717 52.2739 262.722C50.6031 263.726 48.4495 264.228 45.8132 264.228Z" fill="#5534DA"/>
<path d="M79.7578 264.228C77.1958 264.228 74.7266 263.931 72.3502 263.335C70.011 262.703 68.1544 261.922 66.7806 260.992L69.6768 254.742C71.0506 255.598 72.6658 256.305 74.5224 256.863C76.416 257.383 78.2726 257.644 80.092 257.644C82.097 257.644 83.508 257.402 84.3249 256.918C85.1789 256.435 85.6059 255.765 85.6059 254.91C85.6059 254.203 85.2717 253.682 84.6034 253.347C83.9721 252.975 83.1181 252.696 82.0413 252.51C80.9646 252.324 79.7764 252.138 78.4768 251.952C77.2143 251.766 75.9333 251.524 74.6338 251.227C73.3342 250.892 72.146 250.408 71.0692 249.776C69.9924 249.144 69.1198 248.288 68.4515 247.209C67.8203 246.13 67.5046 244.735 67.5046 243.024C67.5046 241.127 68.043 239.453 69.1198 238.002C70.2338 236.551 71.8304 235.417 73.9097 234.598C75.989 233.743 78.4768 233.315 81.373 233.315C83.4152 233.315 85.4945 233.538 87.611 233.985C89.7274 234.431 91.4911 235.082 92.9021 235.938L90.0059 242.131C88.5578 241.276 87.0911 240.699 85.6059 240.402C84.1578 240.067 82.7468 239.899 81.373 239.899C79.4422 239.899 78.0312 240.16 77.1401 240.681C76.2489 241.201 75.8034 241.871 75.8034 242.689C75.8034 243.433 76.119 243.991 76.7502 244.363C77.4186 244.735 78.2911 245.033 79.3679 245.256C80.4447 245.479 81.6143 245.684 82.8768 245.87C84.1764 246.019 85.4759 246.261 86.7755 246.595C88.0751 246.93 89.2447 247.414 90.2844 248.046C91.3612 248.641 92.2337 249.478 92.9021 250.557C93.5705 251.599 93.9046 252.975 93.9046 254.686C93.9046 256.546 93.3477 258.202 92.2337 259.653C91.1198 261.066 89.5046 262.182 87.3882 263.001C85.3089 263.819 82.7654 264.228 79.7578 264.228Z" fill="#5534DA"/>
<path d="M105.184 257.644L105.407 247.042L119.387 233.761H129.746L116.324 247.432L111.812 251.115L105.184 257.644ZM97.9996 263.782V222.378H106.688V263.782H97.9996ZM120.334 263.782L110.197 251.171L115.655 244.419L130.86 263.782H120.334Z" fill="#5534DA"/>
<path d="M133.502 263.782V233.761H142.191V263.782H133.502ZM137.846 229.576C136.25 229.576 134.95 229.111 133.948 228.181C132.945 227.251 132.444 226.098 132.444 224.722C132.444 223.345 132.945 222.192 133.948 221.262C134.95 220.332 136.25 219.867 137.846 219.867C139.443 219.867 140.742 220.314 141.745 221.206C142.748 222.062 143.249 223.178 143.249 224.554C143.249 226.005 142.748 227.214 141.745 228.181C140.78 229.111 139.48 229.576 137.846 229.576Z" fill="#5534DA"/>
<path d="M150.047 263.782V233.092C150.047 229.707 151.049 227.01 153.054 225.001C155.059 222.955 157.918 221.932 161.632 221.932C162.894 221.932 164.101 222.062 165.252 222.322C166.44 222.583 167.443 222.992 168.259 223.55L165.976 229.855C165.493 229.521 164.955 229.26 164.361 229.074C163.767 228.888 163.135 228.795 162.467 228.795C161.205 228.795 160.221 229.167 159.515 229.911C158.847 230.618 158.513 231.697 158.513 233.148V235.938L158.735 239.676V263.782H150.047ZM145.424 241.127V234.431H166.199V241.127H145.424Z" fill="#5534DA"/>
<path d="M173.593 275.053C172.033 275.053 170.492 274.812 168.97 274.328C167.448 273.844 166.204 273.175 165.238 272.319L168.413 266.125C169.081 266.721 169.842 267.186 170.696 267.52C171.588 267.855 172.46 268.023 173.314 268.023C174.54 268.023 175.505 267.725 176.21 267.13C176.953 266.572 177.621 265.623 178.215 264.284L179.775 260.601L180.443 259.653L191.193 233.761H199.547L186.013 265.623C185.048 268.041 183.934 269.938 182.671 271.315C181.446 272.691 180.072 273.658 178.55 274.216C177.064 274.774 175.412 275.053 173.593 275.053ZM178.717 264.954L165.35 233.761H174.317L184.676 258.871L178.717 264.954Z" fill="#5534DA"/>
<defs>
<clipPath id="clip0_567_1485">
<rect width="164.557" height="189.796" fill="white" transform="translate(35.4434)"/>
</clipPath>
</defs>
</svg>
