<svg width="10" height="5" viewBox="0 0 10 5" fill="none" xmlns="http://www.w3.org/2000/svg">
<path d="M4.48064 4.35449L1.06692 0.940798C1.01983 0.893709 0.982747 0.84113 0.955664 0.783064C0.928581 0.724979 0.915039 0.66275 0.915039 0.596378C0.915039 0.463634 0.959926 0.348305 1.0497 0.250389C1.13945 0.152474 1.25776 0.103516 1.40462 0.103516H8.59622C8.74309 0.103516 8.8614 0.152944 8.95115 0.251798C9.04092 0.35067 9.08581 0.466009 9.08581 0.597815C9.08581 0.630784 9.03511 0.745184 8.93371 0.941014L5.52021 4.35452C5.44174 4.43299 5.36062 4.49028 5.27686 4.52639C5.19309 4.5625 5.10094 4.58055 5.00042 4.58055C4.89991 4.58055 4.80776 4.5625 4.72398 4.52639C4.64022 4.49028 4.55911 4.43298 4.48064 4.35449Z" fill="#333236"/>
</svg>
