<svg width="60" height="60" viewBox="0 0 60 60" fill="none" xmlns="http://www.w3.org/2000/svg">
<path d="M29.9999 27.4999L12.6489 16.3989C12.1329 16.0688 11.6065 16.04 11.0696 16.3124C10.5328 16.5848 10.2403 17.0175 10.1922 17.6104C10.1442 17.9213 10.1794 18.221 10.298 18.5094C10.4166 18.7979 10.6185 19.0303 10.9037 19.2066L28.7836 30.6297C29.1702 30.8636 29.5761 30.9806 30.0014 30.9806C30.4267 30.9806 30.8317 30.8636 31.2162 30.6297L49.0961 19.2066C49.3814 19.0303 49.5873 18.7979 49.7139 18.5094C49.8405 18.221 49.8717 17.9213 49.8076 17.6104C49.7595 17.0175 49.4671 16.5888 48.9303 16.3244C48.3934 16.06 47.8669 16.0929 47.3509 16.423L29.9999 27.4999ZM47.4999 56.2498C44.3782 56.2498 41.7228 55.1553 39.5336 52.9663C37.3445 50.7771 36.25 48.1217 36.25 44.9999C36.25 41.8782 37.3445 39.2228 39.5336 37.0336C41.7228 34.8445 44.3782 33.75 47.4999 33.75C50.6217 33.75 53.2771 34.8445 55.4663 37.0336C57.6553 39.2228 58.7499 41.8782 58.7499 44.9999C58.7499 48.1217 57.6553 50.7771 55.4663 52.9663C53.2771 55.1553 50.6217 56.2499 47.4999 56.2499V56.2498ZM41.9231 46.1057H53.0824C53.38 46.1057 53.6377 45.9951 53.8556 45.7739C54.0736 45.5528 54.1826 45.2948 54.1826 44.9999C54.1826 44.7051 54.072 44.4471 53.8509 44.2259C53.6297 44.0048 53.3717 43.8942 53.0768 43.8942H41.9175C41.6199 43.8942 41.3622 44.0048 41.1443 44.2259C40.9263 44.4471 40.8173 44.7051 40.8173 44.9999C40.8173 45.2948 40.9279 45.5528 41.149 45.7739C41.3702 45.9951 41.6282 46.1057 41.9231 46.1057ZM10.7693 48.7499C9.52646 48.7499 8.46256 48.3074 7.57756 47.4223C6.69252 46.5373 6.25 45.4734 6.25 44.2306V15.7693C6.25 14.5265 6.69252 13.4626 7.57756 12.5776C8.46256 11.6925 9.52646 11.25 10.7693 11.25H49.2306C50.4734 11.25 51.5373 11.6925 52.4223 12.5776C53.3074 13.4626 53.7499 14.5265 53.7499 15.7693V30.0673C52.7595 29.6282 51.7435 29.2989 50.7018 29.0794C49.6601 28.8598 48.5929 28.75 47.4999 28.75C42.9732 28.75 39.1332 30.3266 35.9799 33.4799C32.8266 36.6332 31.25 40.4732 31.25 44.9999C31.25 45.6249 31.2885 46.2499 31.3654 46.8749C31.4424 47.4999 31.5737 48.1249 31.7596 48.7499H10.7693Z" fill="#D9D9D9"/>
</svg>
