<svg width="24" height="28" viewBox="0 0 24 28" fill="none" xmlns="http://www.w3.org/2000/svg">
<g clip-path="url(#clip0_12555_12199)">
<path d="M23.6245 2.0783C23.6136 2.05654 23.5882 2.04204 23.5627 2.04929C23.341 2.14356 23.1193 2.22334 22.8902 2.30673C22.2614 2.5388 21.607 2.69109 20.9527 2.84338C20.2038 3.01018 19.4405 3.12984 18.6952 3.31476C18.0518 3.47068 17.412 3.65923 16.794 3.9058C16.3287 4.0871 15.8707 4.28291 15.4417 4.5331C14.9328 4.8123 14.522 5.22929 14.1222 5.64266C13.755 6.02701 13.3842 6.41137 13.0607 6.83561C12.8789 7.07493 12.7263 7.336 12.5809 7.59707C12.8099 6.73409 13.1298 5.86384 13.715 5.1749C13.7587 5.12051 13.7078 5.05525 13.646 5.08425C13.4969 5.15677 13.3588 5.25105 13.217 5.33807C12.1337 6.07053 11.1668 6.98065 10.3343 7.98506C9.92718 8.48182 9.53458 8.98946 9.21104 9.54424C8.83662 10.1933 8.55308 10.8931 8.34951 11.6147C8.32769 11.1868 8.36405 10.7589 8.42221 10.3347C8.43312 10.2586 8.44402 10.186 8.44766 10.1099C8.44766 10.0591 8.4622 9.98661 8.4113 9.9576C8.37495 9.93947 8.3386 9.9576 8.31315 9.98661C8.28044 10.0192 8.25499 10.0555 8.22591 10.0918C8.16775 10.1679 8.10958 10.2477 8.05506 10.3275C7.8733 10.5849 7.70971 10.8569 7.56794 11.1397C7.21896 11.854 6.89907 12.5756 6.57554 13.3008C6.24837 14.026 5.94665 14.7657 5.63039 15.4945C5.32867 16.1835 4.99787 16.8615 4.65616 17.5323C4.47077 17.8913 4.28174 18.2503 4.05999 18.5911C3.96547 18.7362 3.86732 18.8776 3.76554 19.0154C3.78008 18.9864 3.79462 18.961 3.80916 18.932C4.10725 18.3482 4.31082 17.7245 4.49621 17.0972C4.64889 16.6947 4.80157 16.2922 4.97242 15.9006C5.17236 15.4546 5.35048 15.0014 5.52133 14.5445C5.86304 13.6815 6.27745 12.8548 6.75002 12.0534C7.05538 11.5349 7.38255 11.0273 7.68063 10.5015C7.96054 10.0084 8.18229 9.48622 8.43675 8.98221C8.62578 8.6051 8.81844 8.228 8.98203 7.84002C9.02928 7.73124 9.07654 7.61883 9.12016 7.50642C9.13834 7.45203 9.16015 7.39402 9.17106 7.336C9.17106 7.31425 9.17469 7.28886 9.16015 7.26711C9.12744 7.21634 9.062 7.23447 9.02201 7.26711C8.90569 7.35413 8.79663 7.44478 8.68394 7.53906C8.32042 7.84727 7.94237 8.13735 7.5534 8.41292C8.38586 7.4049 9.27284 6.37511 9.67271 5.10601C9.70179 4.99723 9.78177 4.72528 9.70179 4.63463C9.64727 4.58749 9.58547 4.65276 9.55275 4.69265C9.21468 5.11326 8.85843 5.51937 8.4622 5.8856C8.61487 5.64628 8.76028 5.39972 8.89115 5.1459C9.10926 4.71077 9.32373 4.27203 9.50186 3.81878C9.7127 3.264 9.87265 2.69472 10.0399 2.12906C10.2107 1.51264 10.3634 0.888967 10.5488 0.276173C10.567 0.218157 10.5851 0.16014 10.596 0.0984984C10.596 0.0803684 10.6033 0.0586124 10.596 0.0404824C10.5851 0.00784833 10.5452 -0.0139077 10.5124 -0.00302968C10.4834 0.00422232 10.4543 0.0223523 10.4288 0.0441084C10.058 0.392205 9.72724 0.780187 9.37099 1.13916C9.10926 1.40749 8.84389 1.67944 8.59306 1.95864C8.08777 2.53155 7.63701 3.15522 7.28076 3.82966C6.95723 4.44245 6.72094 5.10601 6.57554 5.78407C6.37924 6.66882 6.3138 7.57532 6.19021 8.47094C6.04843 8.08296 5.96483 7.67322 5.94665 7.25623C5.93938 7.11844 5.93211 6.9734 5.92484 6.82473C5.92484 6.75584 5.92484 6.60717 5.81942 6.63981C5.7867 6.65794 5.76853 6.6942 5.75035 6.73046C5.71763 6.79573 5.68855 6.86462 5.65947 6.93352C5.56859 7.14382 5.4668 7.34688 5.37229 7.55356C5.10329 8.13372 4.87064 8.73564 4.75067 9.36294C4.64525 9.87783 4.59073 10.4036 4.59073 10.9257C4.59073 11.6582 4.70342 12.3798 4.69978 13.1159C4.49985 12.7931 4.29628 12.4668 4.21267 12.0897C4.16904 11.912 4.13633 11.7343 4.10725 11.5567C4.09998 11.5059 4.08907 11.4515 4.0818 11.4008C4.07453 11.3645 4.07453 11.3174 4.04545 11.292C3.98002 11.2412 3.93639 11.3282 3.92185 11.3826C3.79826 11.7742 3.73646 12.1876 3.72192 12.601C3.70374 13.0179 3.74373 13.4349 3.78372 13.8519C3.82007 14.229 3.86005 14.6061 3.8855 14.9869C3.86732 15.1247 3.86005 15.2624 3.84915 15.4002C3.80553 16.0783 3.72919 16.7564 3.59832 17.4235C3.51108 17.9602 3.39839 18.4896 3.20936 19.0045C3.1003 19.3707 2.95853 19.7261 2.7804 20.0633C2.75132 20.1104 2.72588 20.1612 2.70043 20.2083C2.34782 20.8356 2.02429 21.4774 1.66804 22.1011C1.45356 22.4673 1.24636 22.8408 1.05369 23.2215C0.91192 23.4681 0.781054 23.7183 0.668363 23.9757C0.570213 24.1933 0.475698 24.4145 0.388454 24.6357C0.355737 24.7299 0.261223 24.9185 0.312115 25.0128C0.388454 25.0817 0.450252 24.991 0.497509 24.8931C0.508415 24.8822 0.519321 24.8714 0.526591 24.8605C0.555672 24.8206 0.581119 24.7807 0.60293 24.7372C0.661093 24.6393 0.719256 24.545 0.773783 24.4507C1.01371 24.0337 1.24636 23.6131 1.48264 23.1925C1.83526 22.5398 2.22059 21.9053 2.60955 21.2707C2.67498 21.1656 2.73678 21.0604 2.80222 20.9516C2.88219 20.8356 2.96216 20.7232 3.04577 20.6072C3.19482 20.4041 3.35476 20.2083 3.52925 20.027C3.74373 19.7913 4.01273 19.5629 4.26356 19.3635C4.62708 19.0697 4.95424 18.7362 5.27414 18.3989C6.01935 17.5903 6.72094 16.7419 7.44798 15.9151C7.93146 15.335 8.45129 14.7766 9.00747 14.2689C9.41825 13.9244 9.84357 13.5945 10.2762 13.279C10.9668 12.7859 11.6939 12.3471 12.3809 11.8467C13.1916 11.2557 13.984 10.6393 14.7111 9.94672C14.7329 9.92134 14.7583 9.89233 14.7438 9.85607C14.7293 9.80894 14.6711 9.81619 14.6311 9.82707C14.4675 9.87058 14.3112 9.93585 14.1513 9.97573C13.9877 10.012 13.8205 10.0446 13.6569 10.0736C13.2097 10.1607 12.7517 10.1969 12.2973 10.2005C12.5554 10.1026 12.8171 10.0084 13.0789 9.92134C13.7296 9.72554 14.3875 9.55874 15.0237 9.31943C16.1542 8.93144 17.143 8.23525 18.0482 7.47016C18.2699 7.28524 18.4953 7.10031 18.6989 6.89363C18.7352 6.85012 18.7898 6.81023 18.797 6.74859C18.797 6.67607 18.7098 6.67607 18.6553 6.69057C18.1463 6.79935 17.6338 6.90451 17.1176 6.9589C16.7759 6.99153 16.4196 7.01691 16.0779 6.95527C16.4741 6.83561 16.874 6.73046 17.2812 6.64706C17.6592 6.57091 18.0409 6.49839 18.4081 6.38599C18.9788 6.21919 19.4913 5.89285 19.9276 5.49399C20.1893 5.2438 20.4329 4.97547 20.6728 4.70352C20.9272 4.41344 21.1563 4.10161 21.4253 3.8224C21.7779 3.45255 22.1632 3.11533 22.574 2.81438C22.8793 2.57506 23.2065 2.372 23.5446 2.17982C23.57 2.16532 23.5955 2.15807 23.6209 2.14356C23.6427 2.12906 23.65 2.10368 23.6391 2.0783H23.6245ZM3.75827 19.3054C3.75827 19.3054 3.75827 19.3054 3.751 19.3054H3.75463H3.75827ZM4.62708 15.4075C4.90699 14.4937 5.17599 13.5764 5.4668 12.6662C5.73944 11.7343 6.01208 10.8025 6.29926 9.87783C6.61916 8.78278 6.87362 7.66959 7.21169 6.57817C7.45162 5.80945 7.72062 5.04799 8.02234 4.30104C8.29498 3.6266 8.60033 2.96304 9.01474 2.36112C8.67667 3.16247 8.32769 3.95657 8.03325 4.77242C7.7497 5.48674 7.50978 6.21557 7.30257 6.95527C6.79728 8.5906 6.49193 10.2803 6.00481 11.9193C5.79761 12.6445 5.56496 13.3624 5.31413 14.0767C5.136 14.588 4.92516 15.0993 4.75067 15.6105C4.36171 16.7455 4.00183 17.8913 3.55833 19.0081C3.55106 19.0154 3.54379 19.0226 3.53652 19.0299C3.52198 19.0262 3.50744 19.0299 3.49654 19.0335C3.57287 18.7942 3.64558 18.5512 3.70738 18.3083C4.00183 17.3365 4.32536 16.3756 4.62708 15.4075ZM15.5544 6.49477C15.1328 6.78485 14.7111 7.07493 14.3112 7.39039C13.646 7.91979 12.9989 8.46731 12.3555 9.02209C11.9811 9.35569 11.643 9.72916 11.2904 10.0881C10.9414 10.4507 10.5888 10.8061 10.258 11.1832C9.81812 11.6727 9.36736 12.155 8.94568 12.6626C8.57489 13.0977 8.23681 13.5618 7.90238 14.026C7.65519 14.3559 7.40436 14.6859 7.17171 15.0268C6.89543 15.422 6.60825 15.8063 6.33198 16.2016C6.05571 16.6004 5.78307 16.9993 5.51406 17.4018C5.34321 17.6556 5.17236 17.9131 4.97242 18.1487C4.73613 18.4279 4.49258 18.7217 4.22357 18.9791C4.12179 19.0697 4.02364 19.1604 3.92549 19.2547C3.92549 19.2547 3.92549 19.2547 3.92185 19.2547C3.87459 19.2438 3.87459 19.2003 3.8855 19.164C4.07816 18.9501 4.27083 18.7398 4.45986 18.5222C4.68888 18.2575 4.89608 17.9747 5.08875 17.6846C6.11387 16.1907 7.1499 14.7004 8.25136 13.2573C8.66213 12.7242 9.08745 12.1985 9.54548 11.7053C10.3343 10.8714 11.1486 10.0664 11.9629 9.25416C13.0134 8.20987 14.1331 7.23085 15.3509 6.38599C16.3215 5.73331 17.3539 5.1749 18.419 4.69265C17.4229 5.22567 16.4923 5.87472 15.5544 6.49839V6.49477Z" fill="#5534DA"/>
<path d="M16.4491 24.843C16.42 24.9047 16.38 24.9591 16.3364 25.0098C15.8784 25.4848 15.2022 25.7314 14.5624 25.8583C13.9154 25.9925 13.2501 25.8692 12.6176 25.7278C13.2465 25.2093 13.9517 24.6037 14.0935 23.7589C14.2316 22.7472 13.2756 22.0909 12.3559 22.0474C9.28051 21.9459 6.50323 23.6102 3.8968 25.0497C2.90803 25.59 1.80657 26.2826 0.632404 26.0106C0.468821 25.9635 0.301602 25.8583 0.25071 25.6843C0.254345 25.6371 0.232534 25.5827 0.185277 25.561C-0.178242 25.4885 0.0798562 25.9997 0.247075 26.0904C1.69024 26.9135 3.69686 25.3869 4.97281 24.727C6.28875 24.0091 7.64831 23.2839 9.08057 22.8161C10.2693 22.4644 11.6761 22.0728 12.9012 22.4027C13.5264 22.584 14.0135 23.2367 13.8136 23.8894C13.5628 24.6436 12.9121 25.1766 12.305 25.648C11.3489 25.4196 10.3565 25.1694 9.36775 25.3108C8.82247 25.4087 8.19359 25.6009 7.92095 26.123C7.49563 26.9788 8.56074 27.1456 9.17872 27.1274C10.3383 27.0912 11.4434 26.6162 12.3595 25.9163C13.3992 26.1883 14.4279 26.2898 15.4421 25.862C15.9002 25.6516 16.42 25.4196 16.6672 24.9518C16.7435 24.8104 16.5182 24.6944 16.4455 24.8358L16.4491 24.843ZM9.146 26.8845C8.81157 26.8591 8.22267 26.9062 8.0809 26.5328C8.05908 26.0614 8.58255 25.7858 8.97515 25.6661C9.9821 25.3616 11.0436 25.6154 12.0396 25.8474C11.1999 26.4602 10.1929 26.8555 9.146 26.8845Z" fill="#5534DA"/>
</g>
<defs>
<clipPath id="clip0_12555_12199">
<rect width="23.6287" height="27.1334" fill="white"/>
</clipPath>
</defs>
</svg>
