<svg width="20" height="20" viewBox="0 0 20 20" fill="none" xmlns="http://www.w3.org/2000/svg">
<path d="M9.37533 10.7083V13.4166C9.37533 13.594 9.43515 13.7425 9.55481 13.8621C9.67446 13.9818 9.82296 14.0416 10.0003 14.0416C10.1777 14.0416 10.3262 13.9818 10.4458 13.8621C10.5655 13.7425 10.6253 13.594 10.6253 13.4166V10.7083H13.3336C13.511 10.7083 13.6595 10.6485 13.7791 10.5288C13.8988 10.4092 13.9586 10.2607 13.9586 10.0833C13.9586 9.90597 13.8988 9.75747 13.7791 9.63781C13.6595 9.51816 13.511 9.45833 13.3336 9.45833H10.6253V6.74998C10.6253 6.57263 10.5655 6.42413 10.4458 6.30448C10.3262 6.18483 10.1777 6.125 10.0003 6.125C9.82296 6.125 9.67446 6.18483 9.55481 6.30448C9.43515 6.42413 9.37533 6.57263 9.37533 6.74998V9.45833H6.66697C6.48962 9.45833 6.34112 9.51816 6.22147 9.63781C6.10182 9.75747 6.04199 9.90597 6.04199 10.0833C6.04199 10.2607 6.10182 10.4092 6.22147 10.5288C6.34112 10.6485 6.48962 10.7083 6.66697 10.7083H9.37533ZM4.42341 17.1666C4.00246 17.1666 3.64616 17.0208 3.35449 16.7291C3.06283 16.4375 2.91699 16.0812 2.91699 15.6602V4.50642C2.91699 4.08547 3.06283 3.72917 3.35449 3.4375C3.64616 3.14583 4.00246 3 4.42341 3H15.5772C15.9981 3 16.3545 3.14583 16.6461 3.4375C16.9378 3.72917 17.0836 4.08547 17.0836 4.50642V15.6602C17.0836 16.0812 16.9378 16.4375 16.6461 16.7291C16.3545 17.0208 15.9981 17.1666 15.5772 17.1666H4.42341ZM4.42341 15.9166H15.5772C15.6413 15.9166 15.7001 15.8899 15.7535 15.8365C15.8069 15.7831 15.8336 15.7243 15.8336 15.6602V4.50642C15.8336 4.44231 15.8069 4.38354 15.7535 4.3301C15.7001 4.27669 15.6413 4.24998 15.5772 4.24998H4.42341C4.3593 4.24998 4.30053 4.27669 4.2471 4.3301C4.19368 4.38354 4.16697 4.44231 4.16697 4.50642V15.6602C4.16697 15.7243 4.19368 15.7831 4.2471 15.8365C4.30053 15.8899 4.3593 15.9166 4.42341 15.9166Z" fill="#787486"/>
</svg>
