<svg width="16" height="16" viewBox="0 0 16 16" fill="none" xmlns="http://www.w3.org/2000/svg">
<path d="M7.49992 8.56702V10.7337C7.49992 10.8756 7.54778 10.9944 7.6435 11.0901C7.73922 11.1858 7.85802 11.2337 7.9999 11.2337C8.14178 11.2337 8.26058 11.1858 8.3563 11.0901C8.45202 10.9944 8.49989 10.8756 8.49989 10.7337V8.56702H10.6666C10.8084 8.56702 10.9272 8.51916 11.023 8.42344C11.1187 8.32772 11.1666 8.20892 11.1666 8.06704C11.1666 7.92516 11.1187 7.80636 11.023 7.71064C10.9272 7.61492 10.8084 7.56706 10.6666 7.56706H8.49989V5.40037C8.49989 5.2585 8.45202 5.1397 8.3563 5.04398C8.26058 4.94825 8.14178 4.90039 7.9999 4.90039C7.85802 4.90039 7.73922 4.94825 7.6435 5.04398C7.54778 5.1397 7.49992 5.2585 7.49992 5.40037V7.56706H5.33324C5.19136 7.56706 5.07256 7.61492 4.97684 7.71064C4.88111 7.80636 4.83325 7.92516 4.83325 8.06704C4.83325 8.20892 4.88111 8.32772 4.97684 8.42344C5.07256 8.51916 5.19136 8.56702 5.33324 8.56702H7.49992ZM3.53839 13.7337C3.20163 13.7337 2.91659 13.617 2.68325 13.3837C2.44992 13.1504 2.33325 12.8653 2.33325 12.5286V3.60552C2.33325 3.26877 2.44992 2.98372 2.68325 2.75039C2.91659 2.51706 3.20163 2.40039 3.53839 2.40039H12.4614C12.7982 2.40039 13.0832 2.51706 13.3166 2.75039C13.5499 2.98372 13.6666 3.26877 13.6666 3.60552V12.5286C13.6666 12.8653 13.5499 13.1504 13.3166 13.3837C13.0832 13.617 12.7982 13.7337 12.4614 13.7337H3.53839ZM3.53839 12.7337H12.4614C12.5127 12.7337 12.5597 12.7123 12.6025 12.6696C12.6452 12.6269 12.6666 12.5798 12.6666 12.5286V3.60552C12.6666 3.55424 12.6452 3.50722 12.6025 3.46447C12.5597 3.42174 12.5127 3.40037 12.4614 3.40037H3.53839C3.4871 3.40037 3.44008 3.42174 3.39734 3.46447C3.3546 3.50722 3.33324 3.55424 3.33324 3.60552V12.5286C3.33324 12.5798 3.3546 12.6269 3.39734 12.6696C3.44008 12.7123 3.4871 12.7337 3.53839 12.7337Z" fill="white"/>
</svg>
