<svg width="22" height="22" viewBox="0 0 22 22" fill="none" xmlns="http://www.w3.org/2000/svg">
<rect width="22" height="22" rx="4" fill="#F1EFFD"/>
<path d="M10.2421 11.7578H6.95659C6.74378 11.7578 6.56419 11.6846 6.41781 11.5382C6.27143 11.3918 6.19824 11.2122 6.19824 10.9994C6.19824 10.7866 6.27143 10.6071 6.41781 10.4607C6.56419 10.3143 6.74378 10.2411 6.95659 10.2411H10.2421V6.95562C10.2421 6.7428 10.3153 6.56321 10.4617 6.41683C10.608 6.27045 10.7876 6.19727 11.0004 6.19727C11.2132 6.19727 11.3928 6.27045 11.5392 6.41683C11.6856 6.56321 11.7588 6.7428 11.7588 6.95562V10.2411H15.0443C15.2571 10.2411 15.4367 10.3143 15.583 10.4607C15.7294 10.6071 15.8026 10.7866 15.8026 10.9994C15.8026 11.2122 15.7294 11.3918 15.583 11.5382C15.4367 11.6846 15.2571 11.7578 15.0443 11.7578H11.7588V15.0433C11.7588 15.2561 11.6856 15.4357 11.5392 15.5821C11.3928 15.7284 11.2132 15.8016 11.0004 15.8016C10.7876 15.8016 10.608 15.7284 10.4617 15.5821C10.3153 15.4357 10.2421 15.2561 10.2421 15.0433V11.7578Z" fill="#5534DA"/>
</svg>
