<svg width="20" height="20" viewBox="0 0 20 20" fill="none" xmlns="http://www.w3.org/2000/svg">
<path d="M9.05188 10.9467H4.94501C4.67899 10.9467 4.4545 10.8553 4.27153 10.6723C4.08856 10.4893 3.99707 10.2648 3.99707 9.99882C3.99707 9.73282 4.08856 9.50834 4.27153 9.32537C4.4545 9.14239 4.67899 9.05091 4.94501 9.05091H9.05188V4.94403C9.05188 4.67802 9.14337 4.45352 9.32634 4.27055C9.50932 4.08758 9.7338 3.99609 9.9998 3.99609C10.2658 3.99609 10.4903 4.08758 10.6733 4.27055C10.8562 4.45352 10.9477 4.67802 10.9477 4.94403V9.05091H15.0546C15.3206 9.05091 15.5451 9.14239 15.7281 9.32537C15.911 9.50834 16.0025 9.73282 16.0025 9.99882C16.0025 10.2648 15.911 10.4893 15.7281 10.6723C15.5451 10.8553 15.3206 10.9467 15.0546 10.9467H10.9477V15.0536C10.9477 15.3196 10.8562 15.5441 10.6733 15.7271C10.4903 15.9101 10.2658 16.0016 9.9998 16.0016C9.7338 16.0016 9.50932 15.9101 9.32634 15.7271C9.14337 15.5441 9.05188 15.3196 9.05188 15.0536V10.9467Z" fill="#fff"/>
</svg>
