<svg width="16" height="16" viewBox="0 0 16 16" fill="none" xmlns="http://www.w3.org/2000/svg">
<path d="M7.37508 8.62431V11.3327C7.37508 11.51 7.43491 11.6585 7.55456 11.7782C7.67421 11.8978 7.82271 11.9576 8.00006 11.9576C8.17741 11.9576 8.32591 11.8978 8.44556 11.7782C8.56521 11.6585 8.62504 11.51 8.62504 11.3327V8.62431H11.3334C11.5107 8.62431 11.6592 8.56448 11.7789 8.44483C11.8985 8.32518 11.9584 8.17668 11.9584 7.99933C11.9584 7.82198 11.8985 7.67348 11.7789 7.55383C11.6592 7.43418 11.5107 7.37435 11.3334 7.37435H8.62504V4.666C8.62504 4.48865 8.56521 4.34015 8.44556 4.2205C8.32591 4.10084 8.17741 4.04102 8.00006 4.04102C7.82271 4.04102 7.67421 4.10084 7.55456 4.2205C7.43491 4.34015 7.37508 4.48865 7.37508 4.666V7.37435H4.66673C4.48938 7.37435 4.34088 7.43418 4.22123 7.55383C4.10157 7.67348 4.04175 7.82198 4.04175 7.99933C4.04175 8.17668 4.10157 8.32518 4.22123 8.44483C4.34088 8.56448 4.48938 8.62431 4.66673 8.62431H7.37508ZM2.42316 15.0826C2.00222 15.0826 1.64591 14.9368 1.35425 14.6451C1.06258 14.3535 0.916748 13.9972 0.916748 13.5762V2.42243C0.916748 2.00149 1.06258 1.64518 1.35425 1.35352C1.64591 1.06185 2.00222 0.916016 2.42316 0.916016H13.577C13.9979 0.916016 14.3542 1.06185 14.6459 1.35352C14.9375 1.64518 15.0834 2.00149 15.0834 2.42243V13.5762C15.0834 13.9972 14.9375 14.3535 14.6459 14.6451C14.3542 14.9368 13.9979 15.0826 13.577 15.0826H2.42316ZM2.42316 13.8327H13.577C13.6411 13.8327 13.6998 13.806 13.7533 13.7525C13.8067 13.6991 13.8334 13.6403 13.8334 13.5762V2.42243C13.8334 2.35832 13.8067 2.29955 13.7533 2.24612C13.6998 2.1927 13.6411 2.166 13.577 2.166H2.42316C2.35905 2.166 2.30028 2.1927 2.24685 2.24612C2.19344 2.29955 2.16673 2.35832 2.16673 2.42243V13.5762C2.16673 13.6403 2.19344 13.6991 2.24685 13.7525C2.30028 13.806 2.35905 13.8327 2.42316 13.8327Z" fill="#787486"/>
</svg>
