<svg width="20" height="20" viewBox="0 0 20 20" fill="none" xmlns="http://www.w3.org/2000/svg">
<path d="M8.73414 17.9173C8.54717 17.9173 8.38531 17.8545 8.24856 17.729C8.11181 17.6034 8.02954 17.4472 8.00176 17.2602L7.75979 15.3788C7.53649 15.304 7.30759 15.1993 7.07308 15.0647C6.83856 14.9301 6.62889 14.7859 6.44406 14.632L4.70368 15.366C4.52526 15.444 4.34818 15.453 4.17243 15.3932C3.99668 15.3334 3.85859 15.2212 3.75816 15.0567L2.50499 12.874C2.4099 12.7095 2.38051 12.5338 2.41685 12.3468C2.45317 12.1598 2.54665 12.0092 2.69728 11.8949L4.2037 10.7554C4.18447 10.6315 4.17084 10.507 4.16283 10.382C4.15481 10.257 4.15081 10.1326 4.15081 10.0087C4.15081 9.89006 4.15481 9.76959 4.16283 9.64726C4.17084 9.52492 4.18447 9.39111 4.2037 9.24582L2.69728 8.10638C2.54665 7.99208 2.45183 7.84144 2.41285 7.65446C2.37385 7.46751 2.40456 7.29176 2.50499 7.12724L3.75816 4.96061C3.85859 4.79608 3.99535 4.6839 4.16843 4.62407C4.3415 4.56423 4.51724 4.57332 4.69566 4.65132L6.43604 5.37728C6.6369 5.21808 6.85138 5.07251 7.07947 4.94057C7.30758 4.80861 7.53168 4.70257 7.75176 4.62244L8.00176 2.74105C8.02954 2.55407 8.11181 2.39782 8.24856 2.2723C8.38531 2.14676 8.54717 2.08398 8.73414 2.08398H11.2581C11.4451 2.08398 11.6083 2.14676 11.7477 2.2723C11.8871 2.39782 11.9707 2.55407 11.9985 2.74105L12.2405 4.63046C12.4905 4.72127 12.7167 4.8273 12.9192 4.94857C13.1217 5.06983 13.326 5.21273 13.5322 5.37728L15.3046 4.65132C15.483 4.57332 15.6588 4.5629 15.8318 4.62007C16.0049 4.67722 16.1417 4.78806 16.2421 4.95259L17.4953 7.12724C17.5957 7.29176 17.6264 7.46751 17.5874 7.65446C17.5484 7.84144 17.4536 7.99208 17.303 8.10638L15.7645 9.26984C15.7945 9.40446 15.8107 9.53027 15.8134 9.64726C15.8161 9.76424 15.8174 9.88203 15.8174 10.0006C15.8174 10.1139 15.8147 10.229 15.8094 10.346C15.8041 10.463 15.7848 10.5968 15.7517 10.7474L17.2741 11.8949C17.4248 12.0092 17.5196 12.1598 17.5586 12.3468C17.5976 12.5338 17.5669 12.7095 17.4665 12.874L16.2133 15.0439C16.1128 15.2084 15.9726 15.3214 15.7926 15.3828C15.6126 15.4442 15.4333 15.436 15.2549 15.358L13.5322 14.624C13.326 14.7885 13.1155 14.9341 12.9008 15.0607C12.686 15.1873 12.4659 15.2907 12.2405 15.3708L11.9985 17.2602C11.9707 17.4472 11.8871 17.6034 11.7477 17.729C11.6083 17.8545 11.4451 17.9173 11.2581 17.9173H8.73414ZM9.16681 16.6673H10.8046L11.1043 14.4349C11.5295 14.3238 11.9181 14.166 12.2702 13.9614C12.6222 13.7568 12.9617 13.4937 13.2886 13.1721L15.3591 14.0423L16.1796 12.6256L14.3719 11.2634C14.4414 11.0476 14.4887 10.8361 14.5138 10.6288C14.5389 10.4216 14.5514 10.2122 14.5514 10.0006C14.5514 9.78376 14.5389 9.57435 14.5138 9.37242C14.4887 9.17051 14.4414 8.96431 14.3719 8.75384L16.1957 7.37563L15.3751 5.95896L13.2806 6.84199C13.0017 6.5439 12.6676 6.28055 12.2782 6.05192C11.8888 5.82328 11.4948 5.66142 11.0963 5.56634L10.8335 3.33396H9.17962L8.90399 5.55832C8.47877 5.65875 8.08614 5.8126 7.7261 6.01986C7.36606 6.22712 7.02258 6.49422 6.69566 6.82115L4.62514 5.95896L3.80462 7.37563L5.60431 8.71699C5.53486 8.91462 5.48625 9.12028 5.45847 9.33396C5.43069 9.54765 5.41681 9.77254 5.41681 10.0087C5.41681 10.2255 5.43069 10.4381 5.45847 10.6465C5.48625 10.8548 5.53219 11.0605 5.59628 11.2634L3.80462 12.6256L4.62514 14.0423L6.68764 13.1673C7.00388 13.4921 7.34201 13.7581 7.70206 13.9654C8.0621 14.1726 8.46007 14.3318 8.89597 14.4429L9.16681 16.6673ZM10.0097 12.5006C10.7031 12.5006 11.2931 12.2573 11.7798 11.7707C12.2664 11.284 12.5097 10.694 12.5097 10.0006C12.5097 9.30727 12.2664 8.71726 11.7798 8.23061C11.2931 7.74397 10.7031 7.50065 10.0097 7.50065C9.30784 7.50065 8.7157 7.74397 8.23333 8.23061C7.75097 8.71726 7.50979 9.30727 7.50979 10.0006C7.50979 10.694 7.75097 11.284 8.23333 11.7707C8.7157 12.2573 9.30784 12.5006 10.0097 12.5006Z" fill="#787486"/>
</svg>
