<svg width="56" height="60" viewBox="0 0 56 60" fill="none" xmlns="http://www.w3.org/2000/svg">
<path fill-rule="evenodd" clip-rule="evenodd" d="M13.0641 14.159C13.8748 13.2803 15.1892 13.2803 15.9999 14.159L27.6798 26.818L39.3596 14.159C40.1703 13.2803 41.4847 13.2803 42.2954 14.159C43.1062 15.0377 43.1062 16.4623 42.2954 17.341L30.6156 30L42.2954 42.659C43.1062 43.5377 43.1062 44.9623 42.2954 45.841C41.4847 46.7197 40.1703 46.7197 39.3596 45.841L27.6798 33.182L15.9999 45.841C15.1892 46.7197 13.8748 46.7197 13.0641 45.841C12.2534 44.9623 12.2534 43.5377 13.0641 42.659L24.7439 30L13.0641 17.341C12.2534 16.4623 12.2534 15.0377 13.0641 14.159Z" fill="black"/>
</svg>
